<svg xmlns="http://www.w3.org/2000/svg" width="820" height="460" viewBox="0 0 820 460"><rect width="100%" height="100%" fill="white"/><style>text{font-family:Arial,sans-serif;fill:#222}.grid{stroke:#ddd}</style><text x="410" y="30" text-anchor="middle" font-size="20" font-weight="700">Concentration of Anti-Immigration Speech</text><line class="grid" x1="80" y1="385.0" x2="790" y2="385.0"/><text x="70" y="389.0" text-anchor="end" font-size="12">0%</text><line class="grid" x1="80" y1="321.0" x2="790" y2="321.0"/><text x="70" y="325.0" text-anchor="end" font-size="12">20%</text><line class="grid" x1="80" y1="257.0" x2="790" y2="257.0"/><text x="70" y="261.0" text-anchor="end" font-size="12">40%</text><line class="grid" x1="80" y1="193.0" x2="790" y2="193.0"/><text x="70" y="197.0" text-anchor="end" font-size="12">60%</text><line class="grid" x1="80" y1="129.0" x2="790" y2="129.0"/><text x="70" y="133.0" text-anchor="end" font-size="12">80%</text><line class="grid" x1="80" y1="65.0" x2="790" y2="65.0"/><text x="70" y="69.0" text-anchor="end" font-size="12">100%</text><rect x="210" y="365.2" width="75" height="19.8" fill="#2563eb" rx="4"/><text x="247.5" y="357.2" text-anchor="middle" font-size="13" font-weight="700">6.2%</text><rect x="305" y="347.9" width="75" height="37.1" fill="#f97316" rx="4"/><text x="342.5" y="339.9" text-anchor="middle" font-size="13" font-weight="700">11.6%</text><text x="295" y="416" text-anchor="middle" font-size="14">National</text><rect x="550" y="218.9" width="75" height="166.1" fill="#2563eb" rx="4"/><text x="587.5" y="210.9" text-anchor="middle" font-size="13" font-weight="700">51.9%</text><rect x="645" y="82.0" width="75" height="303.0" fill="#f97316" rx="4"/><text x="682.5" y="74.0" text-anchor="middle" font-size="13" font-weight="700">94.7%</text><text x="635" y="416" text-anchor="middle" font-size="14">Median prefecture</text><line x1="80" y1="385" x2="790" y2="385" stroke="#333"/><rect x="600" y="55" width="16" height="16" fill="#2563eb"/><text x="623" y="68" font-size="12">Top 1 speaker</text><rect x="600" y="80" width="16" height="16" fill="#f97316"/><text x="623" y="93" font-size="12">Top 3 speakers</text><text x="22" y="230" transform="rotate(-90 22 230)" text-anchor="middle" font-size="13">Share of anti-immigration speeches (%)</text></svg>