<svg xmlns="http://www.w3.org/2000/svg" width="820" height="460" viewBox="0 0 820 460"><rect width="100%" height="100%" fill="white"/><style>text{font-family:Arial,sans-serif;fill:#222}.grid{stroke:#ddd}</style><text x="410" y="30" text-anchor="middle" font-size="20" font-weight="700">Stance Distribution in Classified Diet Speeches</text><line class="grid" x1="80" y1="385.0" x2="790" y2="385.0"/><text x="70" y="389.0" text-anchor="end" font-size="12">0%</text><line class="grid" x1="80" y1="297.0" x2="790" y2="297.0"/><text x="70" y="301.0" text-anchor="end" font-size="12">20%</text><line class="grid" x1="80" y1="209.0" x2="790" y2="209.0"/><text x="70" y="213.0" text-anchor="end" font-size="12">40%</text><line class="grid" x1="80" y1="121.0" x2="790" y2="121.0"/><text x="70" y="125.0" text-anchor="end" font-size="12">60%</text><line class="grid" x1="80" y1="33.0" x2="790" y2="33.0"/><text x="70" y="37.0" text-anchor="end" font-size="12">80%</text><rect x="145" y="322.8" width="120" height="62.2" fill="#16a34a" rx="5"/><text x="205" y="312.8" text-anchor="middle" font-size="16" font-weight="700">14.1%</text><text x="205" y="415" text-anchor="middle" font-size="14">Pro</text><rect x="355" y="98.1" width="120" height="286.9" fill="#64748b" rx="5"/><text x="415" y="88.1" text-anchor="middle" font-size="16" font-weight="700">65.2%</text><text x="415" y="415" text-anchor="middle" font-size="14">Neutral</text><rect x="565" y="294.1" width="120" height="90.9" fill="#dc2626" rx="5"/><text x="625" y="284.1" text-anchor="middle" font-size="16" font-weight="700">20.7%</text><text x="625" y="415" text-anchor="middle" font-size="14">Anti</text><line x1="80" y1="385" x2="790" y2="385" stroke="#333"/><text x="22" y="230" transform="rotate(-90 22 230)" text-anchor="middle" font-size="13">Share of speeches (%)</text></svg>