<svg xmlns="http://www.w3.org/2000/svg" width="820" height="460" viewBox="0 0 820 460"><rect width="100%" height="100%" fill="white"/><style>text{font-family:Arial,sans-serif;fill:#222}.grid{stroke:#ddd}.axis{stroke:#333}.annual{fill:none;stroke:#2563eb;stroke-width:3}.rolling{fill:none;stroke:#f97316;stroke-width:3;stroke-dasharray:8 5}.pt{fill:#2563eb}</style><text x="410" y="28" text-anchor="middle" font-size="20" font-weight="700">Parliamentary Attention to Immigration-Related Topics</text><line class="grid" x1="75" y1="400.0" x2="795" y2="400.0"/><text x="65" y="404.0" text-anchor="end" font-size="12">0</text><line class="grid" x1="75" y1="342.5" x2="795" y2="342.5"/><text x="65" y="346.5" text-anchor="end" font-size="12">500</text><line class="grid" x1="75" y1="285.0" x2="795" y2="285.0"/><text x="65" y="289.0" text-anchor="end" font-size="12">1000</text><line class="grid" x1="75" y1="227.5" x2="795" y2="227.5"/><text x="65" y="231.5" text-anchor="end" font-size="12">1500</text><line class="grid" x1="75" y1="170.0" x2="795" y2="170.0"/><text x="65" y="174.0" text-anchor="end" font-size="12">2000</text><line class="grid" x1="75" y1="112.5" x2="795" y2="112.5"/><text x="65" y="116.5" text-anchor="end" font-size="12">2500</text><line class="grid" x1="75" y1="55.0" x2="795" y2="55.0"/><text x="65" y="59.0" text-anchor="end" font-size="12">3000</text><line class="axis" x1="75" y1="55" x2="75" y2="400"/><line class="axis" x1="75" y1="400" x2="795" y2="400"/><text x="75.0" y="430" text-anchor="middle" font-size="12">2012</text><text x="195.0" y="430" text-anchor="middle" font-size="12">2014</text><text x="315.0" y="430" text-anchor="middle" font-size="12">2016</text><text x="435.0" y="430" text-anchor="middle" font-size="12">2018</text><text x="555.0" y="430" text-anchor="middle" font-size="12">2020</text><text x="675.0" y="430" text-anchor="middle" font-size="12">2022</text><text x="795.0" y="430" text-anchor="middle" font-size="12">2024</text><polyline class="annual" points="75.0,394.0 135.0,387.1 195.0,332.3 255.0,360.1 315.0,230.9 375.0,344.2 435.0,104.1 495.0,204.6 555.0,343.2 615.0,354.5 675.0,345.9 735.0,318.7 795.0,220.6"/><polyline class="rolling" points="75.0,394.0 135.0,390.6 195.0,371.1 255.0,359.8 315.0,307.8 375.0,311.8 435.0,226.4 495.0,217.6 555.0,217.3 615.0,300.8 675.0,347.9 735.0,339.7 795.0,295.1"/><circle class="pt" cx="75.0" cy="394.0" r="4"><title>2012: 52</title></circle><circle class="pt" cx="135.0" cy="387.1" r="4"><title>2013: 112</title></circle><circle class="pt" cx="195.0" cy="332.3" r="4"><title>2014: 589</title></circle><circle class="pt" cx="255.0" cy="360.1" r="4"><title>2015: 347</title></circle><circle class="pt" cx="315.0" cy="230.9" r="4"><title>2016: 1470</title></circle><circle class="pt" cx="375.0" cy="344.2" r="4"><title>2017: 485</title></circle><circle class="pt" cx="435.0" cy="104.1" r="4"><title>2018: 2573</title></circle><circle class="pt" cx="495.0" cy="204.6" r="4"><title>2019: 1699</title></circle><circle class="pt" cx="555.0" cy="343.2" r="4"><title>2020: 494</title></circle><circle class="pt" cx="615.0" cy="354.5" r="4"><title>2021: 396</title></circle><circle class="pt" cx="675.0" cy="345.9" r="4"><title>2022: 470</title></circle><circle class="pt" cx="735.0" cy="318.7" r="4"><title>2023: 707</title></circle><circle class="pt" cx="795.0" cy="220.6" r="4"><title>2024: 1560</title></circle><line x1="570" y1="55" x2="600" y2="55" class="annual"/><text x="608" y="59" font-size="12">Annual count</text><line x1="570" y1="76" x2="600" y2="76" class="rolling"/><text x="608" y="80" font-size="12">3-year rolling mean</text><text x="22" y="227" transform="rotate(-90 22 227)" text-anchor="middle" font-size="13">Number of speeches</text><text x="435" y="452" text-anchor="middle" font-size="13">Year</text></svg>