<svg xmlns="http://www.w3.org/2000/svg" width="820" height="460" viewBox="0 0 820 460"><rect width="100%" height="100%" fill="white"/><style>text{font-family:Arial,sans-serif;fill:#222}.grid{stroke:#ddd}.axis{stroke:#333}.line{fill:none;stroke:#2563eb;stroke-width:3}.pt{fill:#2563eb}</style><text x="410" y="28" text-anchor="middle" font-size="20" font-weight="700">Japanese Diet Speeches on Immigration-Related Topics, 2012–2024</text><line class="grid" x1="75" y1="400.0" x2="795" y2="400.0"/><text x="65" y="404.0" text-anchor="end" font-size="12">0</text><line class="grid" x1="75" y1="342.5" x2="795" y2="342.5"/><text x="65" y="346.5" text-anchor="end" font-size="12">500</text><line class="grid" x1="75" y1="285.0" x2="795" y2="285.0"/><text x="65" y="289.0" text-anchor="end" font-size="12">1000</text><line class="grid" x1="75" y1="227.5" x2="795" y2="227.5"/><text x="65" y="231.5" text-anchor="end" font-size="12">1500</text><line class="grid" x1="75" y1="170.0" x2="795" y2="170.0"/><text x="65" y="174.0" text-anchor="end" font-size="12">2000</text><line class="grid" x1="75" y1="112.5" x2="795" y2="112.5"/><text x="65" y="116.5" text-anchor="end" font-size="12">2500</text><line class="grid" x1="75" y1="55.0" x2="795" y2="55.0"/><text x="65" y="59.0" text-anchor="end" font-size="12">3000</text><line class="axis" x1="75" y1="55" x2="75" y2="400"/><line class="axis" x1="75" y1="400" x2="795" y2="400"/><text x="75.0" y="430" text-anchor="middle" font-size="12">2012</text><text x="195.0" y="430" text-anchor="middle" font-size="12">2014</text><text x="315.0" y="430" text-anchor="middle" font-size="12">2016</text><text x="435.0" y="430" text-anchor="middle" font-size="12">2018</text><text x="555.0" y="430" text-anchor="middle" font-size="12">2020</text><text x="675.0" y="430" text-anchor="middle" font-size="12">2022</text><text x="795.0" y="430" text-anchor="middle" font-size="12">2024</text><polyline class="line" points="75.0,394.0 135.0,387.1 195.0,332.3 255.0,360.1 315.0,231.0 375.0,344.2 435.0,104.1 495.0,204.6 555.0,343.2 615.0,354.5 675.0,345.9 735.0,318.7 795.0,220.6"/><circle class="pt" cx="75.0" cy="394.0" r="4"><title>52 speeches</title></circle><circle class="pt" cx="135.0" cy="387.1" r="4"><title>112 speeches</title></circle><circle class="pt" cx="195.0" cy="332.3" r="4"><title>589 speeches</title></circle><circle class="pt" cx="255.0" cy="360.1" r="4"><title>347 speeches</title></circle><circle class="pt" cx="315.0" cy="231.0" r="4"><title>1470 speeches</title></circle><circle class="pt" cx="375.0" cy="344.2" r="4"><title>485 speeches</title></circle><circle class="pt" cx="435.0" cy="104.1" r="4"><title>2573 speeches</title></circle><circle class="pt" cx="495.0" cy="204.6" r="4"><title>1699 speeches</title></circle><circle class="pt" cx="555.0" cy="343.2" r="4"><title>494 speeches</title></circle><circle class="pt" cx="615.0" cy="354.5" r="4"><title>396 speeches</title></circle><circle class="pt" cx="675.0" cy="345.9" r="4"><title>470 speeches</title></circle><circle class="pt" cx="735.0" cy="318.7" r="4"><title>707 speeches</title></circle><circle class="pt" cx="795.0" cy="220.6" r="4"><title>1560 speeches</title></circle><text x="22" y="227.5" transform="rotate(-90 22 227.5)" text-anchor="middle" font-size="13">Number of speeches</text><text x="435.0" y="452" text-anchor="middle" font-size="13">Year</text></svg>