<svg xmlns="http://www.w3.org/2000/svg" width="720" height="450" viewBox="0 0 720 450"><rect width="100%" height="100%" fill="white"/><style>text{font-family:Arial,sans-serif;fill:#222}.grid{stroke:#ddd}.axis{stroke:#333}.top1{fill:#2563eb}.top3{fill:#93c5fd}</style><text x="360" y="30" text-anchor="middle" font-size="20" font-weight="700">Concentration of Anti-Immigration Speech</text><line class="grid" x1="80" y1="380.0" x2="690" y2="380.0"/><text x="70" y="384.0" text-anchor="end" font-size="12">0%</text><line class="grid" x1="80" y1="318.0" x2="690" y2="318.0"/><text x="70" y="322.0" text-anchor="end" font-size="12">20%</text><line class="grid" x1="80" y1="256.0" x2="690" y2="256.0"/><text x="70" y="260.0" text-anchor="end" font-size="12">40%</text><line class="grid" x1="80" y1="194.0" x2="690" y2="194.0"/><text x="70" y="198.0" text-anchor="end" font-size="12">60%</text><line class="grid" x1="80" y1="132.0" x2="690" y2="132.0"/><text x="70" y="136.0" text-anchor="end" font-size="12">80%</text><line class="grid" x1="80" y1="70.0" x2="690" y2="70.0"/><text x="70" y="74.0" text-anchor="end" font-size="12">100%</text><line class="axis" x1="80" y1="70" x2="80" y2="380"/><line class="axis" x1="80" y1="380" x2="690" y2="380"/><rect class="top1" x="154.0" y="360.8" width="70" height="19.2" rx="4"/><text x="189.0" y="353.8" text-anchor="middle" font-size="13" font-weight="700">6.2%</text><rect class="top3" x="236.0" y="344.0" width="70" height="36.0" rx="4"/><text x="271.0" y="337.0" text-anchor="middle" font-size="13" font-weight="700">11.6%</text><text x="230.0" y="415" text-anchor="middle" font-size="14">National</text><rect class="top1" x="444.0" y="219.1" width="70" height="160.9" rx="4"/><text x="479.0" y="212.1" text-anchor="middle" font-size="13" font-weight="700">51.9%</text><rect class="top3" x="526.0" y="86.4" width="70" height="293.6" rx="4"/><text x="561.0" y="79.4" text-anchor="middle" font-size="13" font-weight="700">94.7%</text><text x="520.0" y="415" text-anchor="middle" font-size="14">Median prefecture</text><rect class="top1" x="250" y="48" width="18" height="12"/><text x="274" y="59" font-size="12">Top 1 speaker</text><rect class="top3" x="410" y="48" width="18" height="12"/><text x="434" y="59" font-size="12">Top 3 speakers</text><text x="22" y="225.0" transform="rotate(-90 22 225.0)" text-anchor="middle" font-size="13">Share of anti-immigration speeches</text></svg>