<svg xmlns="http://www.w3.org/2000/svg" width="700" height="450" viewBox="0 0 700 450"><rect width="100%" height="100%" fill="white"/><style>text{font-family:Arial,sans-serif;fill:#222}.grid{stroke:#ddd}.axis{stroke:#333}.bar{fill:#2563eb}</style><text x="350" y="30" text-anchor="middle" font-size="20" font-weight="700">Overall Stance Distribution</text><line class="grid" x1="75" y1="385.0" x2="665" y2="385.0"/><text x="65" y="389.0" text-anchor="end" font-size="12">0%</text><line class="grid" x1="75" y1="320.0" x2="665" y2="320.0"/><text x="65" y="324.0" text-anchor="end" font-size="12">15%</text><line class="grid" x1="75" y1="255.0" x2="665" y2="255.0"/><text x="65" y="259.0" text-anchor="end" font-size="12">30%</text><line class="grid" x1="75" y1="190.0" x2="665" y2="190.0"/><text x="65" y="194.0" text-anchor="end" font-size="12">45%</text><line class="grid" x1="75" y1="125.0" x2="665" y2="125.0"/><text x="65" y="129.0" text-anchor="end" font-size="12">60%</text><line class="grid" x1="75" y1="60.0" x2="665" y2="60.0"/><text x="65" y="64.0" text-anchor="end" font-size="12">75%</text><line class="axis" x1="75" y1="60" x2="75" y2="385"/><line class="axis" x1="75" y1="385" x2="665" y2="385"/><rect class="bar" x="123.3" y="323.7" width="100" height="61.3" rx="5"/><text x="173.3" y="315.7" text-anchor="middle" font-size="14" font-weight="700">14.1%</text><text x="173.3" y="415" text-anchor="middle" font-size="14">Pro</text><rect class="bar" x="320.0" y="102.4" width="100" height="282.6" rx="5"/><text x="370.0" y="94.4" text-anchor="middle" font-size="14" font-weight="700">65.2%</text><text x="370.0" y="415" text-anchor="middle" font-size="14">Neutral</text><rect class="bar" x="516.7" y="295.5" width="100" height="89.5" rx="5"/><text x="566.7" y="287.5" text-anchor="middle" font-size="14" font-weight="700">20.7%</text><text x="566.7" y="415" text-anchor="middle" font-size="14">Anti</text><text x="22" y="222.5" transform="rotate(-90 22 222.5)" text-anchor="middle" font-size="13">Share of classified speeches</text></svg>